<?xml version="1.0" encoding="utf-8"?>
<!-- Uploaded to: SVG Repo, www.svgrepo.com, Generator: SVG Repo Mixer Tools -->
<svg fill="#000000" width="800px" height="800px" viewBox="0 0 32 32" version="1.1" xmlns="http://www.w3.org/2000/svg">
<title>box-open</title>
<path d="M30.236 5.316c-0.003-0.021-0.017-0.037-0.021-0.057-0.023-0.094-0.053-0.176-0.092-0.253l0.003 0.007c-0.029-0.078-0.061-0.144-0.098-0.207l0.003 0.006c-0.054-0.073-0.114-0.137-0.179-0.194l-0.001-0.001c-0.038-0.047-0.077-0.089-0.118-0.128l-0.001-0.001c-0.012-0.009-0.028-0.010-0.041-0.019-0.062-0.037-0.133-0.070-0.208-0.097l-0.009-0.003c-0.070-0.036-0.152-0.067-0.238-0.088l-0.008-0.002c-0.014-0.003-0.025-0.012-0.040-0.015l-12.999-2c-0.057-0.009-0.123-0.015-0.19-0.015s-0.133 0.005-0.197 0.016l0.007-0.001-13 2c-0.017 0.003-0.030 0.014-0.047 0.017-0.083 0.022-0.154 0.049-0.222 0.082l0.007-0.003c-0.092 0.031-0.172 0.067-0.247 0.112l0.006-0.003c-0.012 0.008-0.028 0.009-0.040 0.018-0.042 0.040-0.081 0.082-0.117 0.126l-0.002 0.002c-0.067 0.058-0.126 0.122-0.178 0.192l-0.002 0.003c-0.035 0.058-0.067 0.124-0.093 0.194l-0.003 0.008c-0.035 0.070-0.065 0.151-0.086 0.236l-0.002 0.008c-0.004 0.021-0.018 0.037-0.021 0.058l-1 6.75c-0.009 0.055-0.014 0.119-0.014 0.184 0 0.601 0.425 1.104 0.991 1.223l0.008 0.001 1.001 0.205v12.321c0 0.6 0.423 1.102 0.987 1.223l0.008 0.001 12 2.5c0.077 0.016 0.165 0.025 0.255 0.025s0.178-0.009 0.263-0.027l-0.008 0.001 12.001-2.5c0.572-0.123 0.994-0.625 0.994-1.225v-12.321l1-0.205c0.575-0.12 1-0.623 1-1.225 0-0.065-0.005-0.128-0.014-0.191l0.001 0.007zM28.59 11.263l-8.855 1.812-1.94-4.366 10.157-1.758zM16 4.765l5.252 0.808-5.252 0.909-5.252-0.909zM3.41 11.263l0.639-4.312 10.157 1.758-1.94 4.366zM5.25 14.191l7.499 1.534c0.075 0.016 0.161 0.025 0.249 0.025 0.507 0 0.944-0.301 1.141-0.734l0.003-0.008 0.607-1.367v13.321l-9.5-1.978zM26.75 24.984l-9.5 1.978v-13.321l0.607 1.367c0.2 0.441 0.636 0.742 1.142 0.742 0 0 0 0 0 0v0c0.001 0 0.002 0 0.002 0 0.088 0 0.173-0.009 0.256-0.027l-0.008 0.001 7.5-1.534z"></path>
</svg>